<?xml version="1.0" encoding="UTF-8" standalone="no"?>
<!DOCTYPE svg PUBLIC "-//W3C//DTD SVG 1.1//EN" "http://www.w3.org/Graphics/SVG/1.1/DTD/svg11.dtd">
<svg width="100%" height="100%" viewBox="0 0 16 16" version="1.1" xmlns="http://www.w3.org/2000/svg" xmlns:xlink="http://www.w3.org/1999/xlink" xml:space="preserve" xmlns:serif="http://www.serif.com/" style="fill-rule:evenodd;clip-rule:evenodd;stroke-linejoin:round;stroke-miterlimit:2;">
    <g transform="matrix(0.0169675,0,0,0.0169675,-0.431571,-0.342461)">
        <path d="M968.412,255.928L968.412,727.416C968.412,857.527 862.779,963.16 732.668,963.16L261.179,963.16C131.069,963.16 25.435,857.527 25.435,727.416L25.435,255.928C25.435,125.817 131.069,20.183 261.179,20.183L732.668,20.183C862.779,20.183 968.412,125.817 968.412,255.928ZM525.411,603.138C666.347,477.908 799.529,351.362 790.103,313.764C769.967,233.442 389,111.678 303.684,102.86C273.082,99.697 223.805,407.924 251.249,396.369C293.496,378.58 333.094,363.777 369.91,351.719C356.096,327.609 347.503,311.734 345.888,307.678C342.331,298.747 362.84,316.318 394.07,344.075C693.848,252.651 794.022,352.408 616.018,500C589.995,521.577 464.652,406.81 394.07,344.075C386.155,346.489 378.102,349.036 369.91,351.719C401.469,406.794 460.277,504.842 525.411,603.138ZM525.411,603.138C351.01,758.101 164.736,911.049 222.111,890.943C343.398,848.44 524.358,824.61 667.87,799.586C622.295,744.548 572.22,673.779 525.411,603.138ZM667.87,799.586C720.882,863.606 767.805,906.342 796.414,902.836C826.651,899.131 882.102,745.553 831.932,762.62C791.256,776.457 733.476,788.146 667.87,799.586Z" style="fill:white;"/>
    </g>
</svg>
